<svg width="32" height="32" viewBox="0 0 32 32" fill="none" xmlns="http://www.w3.org/2000/svg">
<path d="M16 7.83333C18.6667 7.83333 19 7.83333 20.0833 7.91667C22.8333 8 24.0833 9.33333 24.1667 12C24.25 13.0833 24.25 13.3333 24.25 16C24.25 18.6667 24.25 19 24.1667 20C24.0833 22.6667 22.75 24 20.0833 24.0833C19 24.1667 18.75 24.1667 16 24.1667C13.3333 24.1667 13 24.1667 12 24.0833C9.25 24 8 22.6667 7.91667 20C7.83333 18.9167 7.83333 18.6667 7.83333 16C7.83333 13.3333 7.83333 13 7.91667 12C8 9.33333 9.33333 8 12 7.91667C13 7.83333 13.3333 7.83333 16 7.83333ZM16 6C13.25 6 12.9167 6 11.9167 6.08333C8.25 6.25 6.25 8.25 6.08333 11.9167C6 12.9167 6 13.25 6 16C6 18.75 6 19.0833 6.08333 20.0833C6.25 23.75 8.25 25.75 11.9167 25.9167C12.9167 26 13.25 26 16 26C18.75 26 19.0833 26 20.0833 25.9167C23.75 25.75 25.75 23.75 25.9167 20.0833C26 19.0833 26 18.75 26 16C26 13.25 26 12.9167 25.9167 11.9167C25.75 8.25 23.75 6.25 20.0833 6.08333C19.0833 6 18.75 6 16 6ZM16 10.8333C13.1667 10.8333 10.8333 13.1667 10.8333 16C10.8333 18.8333 13.1667 21.1667 16 21.1667C18.8333 21.1667 21.1667 18.8333 21.1667 16C21.1667 13.1667 18.8333 10.8333 16 10.8333ZM16 19.3333C14.1667 19.3333 12.6667 17.8333 12.6667 16C12.6667 14.1667 14.1667 12.6667 16 12.6667C17.8333 12.6667 19.3333 14.1667 19.3333 16C19.3333 17.8333 17.8333 19.3333 16 19.3333ZM21.3333 9.5C20.6667 9.5 20.1667 10 20.1667 10.6667C20.1667 11.3333 20.6667 11.8333 21.3333 11.8333C22 11.8333 22.5 11.3333 22.5 10.6667C22.5 10 22 9.5 21.3333 9.5Z" fill="#8794BA"/>
</svg>
