<svg width="32" height="32" viewBox="0 0 32 32" fill="none" xmlns="http://www.w3.org/2000/svg">
    <symbol id="facebook" viewBox="0 0 32 32" xmlns="http://www.w3.org/2000/svg">
        <path d="M13.5 12.6667H11V16H13.5V26H17.6667V16H20.6667L21 12.6667H17.6667V11.25C17.6667 10.5 17.8333 10.1667 18.5833 10.1667H21V6H17.8333C14.8333 6 13.5 7.33333 13.5 9.83333V12.6667Z" />
    </symbol>
    <symbol id="twitter" viewBox="0 0 32 32" xmlns="http://www.w3.org/2000/svg">
        <path d="M11.7392 26C21.0259 26 26.1045 18.3061 26.1045 11.6347C26.1045 11.4161 26.1 11.1987 26.0899 10.982C27.0757 10.2694 27.9327 9.37993 28.6086 8.36786C27.704 8.76978 26.7306 9.04043 25.7093 9.16246C26.7516 8.53747 27.5521 7.54834 27.9296 6.36945C26.9539 6.94798 25.8736 7.36838 24.7238 7.59509C23.8021 6.6138 22.49 6 21.0382 6C18.2497 6 15.9885 8.26122 15.9885 11.0484C15.9885 11.4447 16.033 11.8298 16.1192 12.1995C11.9234 11.9888 8.20253 9.97946 5.71264 6.92475C5.27853 7.67066 5.02859 8.53775 5.02859 9.46222C5.02859 11.2138 5.92004 12.7601 7.27554 13.665C6.44735 13.6396 5.66926 13.4117 4.98885 13.0333C4.98773 13.0543 4.98773 13.0756 4.98773 13.0977C4.98773 15.5431 6.72835 17.5846 9.03827 18.0472C8.61424 18.1628 8.1681 18.225 7.7074 18.225C7.38217 18.225 7.0659 18.1925 6.7583 18.134C7.40093 20.1397 9.26498 21.5996 11.475 21.6407C9.74667 22.9951 7.5697 23.802 5.20436 23.802C4.79712 23.802 4.3952 23.7788 4 23.7321C6.23435 25.164 8.88741 26 11.7392 26Z" />
    </symbol>
    <symbol id="instagram" viewBox="0 0 32 32" xmlns="http://www.w3.org/2000/svg">
        <path d="M16 7.83333C18.6667 7.83333 19 7.83333 20.0833 7.91667C22.8333 8 24.0833 9.33333 24.1667 12C24.25 13.0833 24.25 13.3333 24.25 16C24.25 18.6667 24.25 19 24.1667 20C24.0833 22.6667 22.75 24 20.0833 24.0833C19 24.1667 18.75 24.1667 16 24.1667C13.3333 24.1667 13 24.1667 12 24.0833C9.25 24 8 22.6667 7.91667 20C7.83333 18.9167 7.83333 18.6667 7.83333 16C7.83333 13.3333 7.83333 13 7.91667 12C8 9.33333 9.33333 8 12 7.91667C13 7.83333 13.3333 7.83333 16 7.83333ZM16 6C13.25 6 12.9167 6 11.9167 6.08333C8.25 6.25 6.25 8.25 6.08333 11.9167C6 12.9167 6 13.25 6 16C6 18.75 6 19.0833 6.08333 20.0833C6.25 23.75 8.25 25.75 11.9167 25.9167C12.9167 26 13.25 26 16 26C18.75 26 19.0833 26 20.0833 25.9167C23.75 25.75 25.75 23.75 25.9167 20.0833C26 19.0833 26 18.75 26 16C26 13.25 26 12.9167 25.9167 11.9167C25.75 8.25 23.75 6.25 20.0833 6.08333C19.0833 6 18.75 6 16 6ZM16 10.8333C13.1667 10.8333 10.8333 13.1667 10.8333 16C10.8333 18.8333 13.1667 21.1667 16 21.1667C18.8333 21.1667 21.1667 18.8333 21.1667 16C21.1667 13.1667 18.8333 10.8333 16 10.8333ZM16 19.3333C14.1667 19.3333 12.6667 17.8333 12.6667 16C12.6667 14.1667 14.1667 12.6667 16 12.6667C17.8333 12.6667 19.3333 14.1667 19.3333 16C19.3333 17.8333 17.8333 19.3333 16 19.3333ZM21.3333 9.5C20.6667 9.5 20.1667 10 20.1667 10.6667C20.1667 11.3333 20.6667 11.8333 21.3333 11.8333C22 11.8333 22.5 11.3333 22.5 10.6667C22.5 10 22 9.5 21.3333 9.5Z" />
    </symbol>
</svg>