<svg width="32" height="32" viewBox="0 0 32 32" fill="none" xmlns="http://www.w3.org/2000/svg">
<path d="M11.7392 26C21.0259 26 26.1045 18.3061 26.1045 11.6347C26.1045 11.4161 26.1 11.1987 26.0899 10.982C27.0757 10.2694 27.9327 9.37993 28.6086 8.36786C27.704 8.76978 26.7306 9.04043 25.7093 9.16246C26.7516 8.53747 27.5521 7.54834 27.9296 6.36945C26.9539 6.94798 25.8736 7.36838 24.7238 7.59509C23.8021 6.6138 22.49 6 21.0382 6C18.2497 6 15.9885 8.26122 15.9885 11.0484C15.9885 11.4447 16.033 11.8298 16.1192 12.1995C11.9234 11.9888 8.20253 9.97946 5.71264 6.92475C5.27853 7.67066 5.02859 8.53775 5.02859 9.46222C5.02859 11.2138 5.92004 12.7601 7.27554 13.665C6.44735 13.6396 5.66926 13.4117 4.98885 13.0333C4.98773 13.0543 4.98773 13.0756 4.98773 13.0977C4.98773 15.5431 6.72835 17.5846 9.03827 18.0472C8.61424 18.1628 8.1681 18.225 7.7074 18.225C7.38217 18.225 7.0659 18.1925 6.7583 18.134C7.40093 20.1397 9.26498 21.5996 11.475 21.6407C9.74667 22.9951 7.5697 23.802 5.20436 23.802C4.79712 23.802 4.3952 23.7788 4 23.7321C6.23435 25.164 8.88741 26 11.7392 26Z" fill="#8794BA"/>
</svg>
