<svg width="148" height="32" viewBox="0 0 148 32" fill="none" xmlns="http://www.w3.org/2000/svg">
    <path d="M29.2067 6.96491C26.3238 2.75909 21.4841 0 16 0C7.16344 0 0 7.16344 0 16C0 17.2856 0.151627 18.5358 0.437958 19.7336L8.58579 11.5858C9.36684 10.8047 10.6332 10.8047 11.4142 11.5858L18 18.1716L29.2067 6.96491Z" fill="#8794BA" />
    <path d="M31.1083 10.7201L19.4142 22.4142C18.6332 23.1953 17.3668 23.1953 16.5858 22.4142L10 15.8284L2.02734 23.8011C4.7644 28.693 9.996 32 16 32C24.8366 32 32 24.8366 32 16C32 14.1499 31.686 12.3731 31.1083 10.7201Z" fill="#8794BA" />
    <path d="M50.2466 20.0448H46.0817L45.3544 22.4H42.1073L46.7311 9.79268H49.5885L54.247 22.4H50.9826L50.2466 20.0448ZM46.8091 17.6982H49.5193L48.1598 13.3255L46.8091 17.6982Z" fill="#8794BA" />
    <path d="M65.7027 22.4H62.6807L58.2128 14.555V22.4H55.1735V9.79268H58.2128L62.6721 17.6376V9.79268H65.7027V22.4Z" fill="#8794BA" />
    <path d="M74.9417 20.0448H70.7768L70.0494 22.4H66.8023L71.4262 9.79268H74.2836L78.9421 22.4H75.6777L74.9417 20.0448ZM71.5041 17.6982H74.2143L72.8549 13.3255L71.5041 17.6982Z" fill="#8794BA" />
    <path d="M82.9078 20.0621H88.1984V22.4H79.8686V9.79268H82.9078V20.0621Z" fill="#8794BA" />
    <path d="M91.6706 15.2651L93.9911 9.79268H97.2729L93.2118 17.8714V22.4H90.1293V17.8714L86.077 9.79268H89.3413L91.6706 15.2651Z" fill="#8794BA" />
    <path d="M108.244 12.1392H104.46V22.4H101.42V12.1392H97.7058V9.79268H108.244V12.1392Z" fill="#8794BA" />
    <path d="M112.772 22.4H109.742V9.79268H112.772V22.4Z" fill="#8794BA" />
    <path d="M125.085 18.1312C125.045 19.0086 124.808 19.785 124.375 20.4604C123.942 21.13 123.333 21.6495 122.548 22.019C121.769 22.3884 120.877 22.5731 119.872 22.5731C118.216 22.5731 116.911 22.0334 115.959 20.9539C115.006 19.8745 114.53 18.3505 114.53 16.3821V15.7586C114.53 14.5233 114.744 13.4438 115.171 12.5202C115.604 11.5908 116.224 10.875 117.032 10.3728C117.841 9.86483 118.776 9.61084 119.838 9.61084C121.368 9.61084 122.597 10.0149 123.526 10.8231C124.456 11.6255 124.984 12.7338 125.111 14.1481H122.08C122.057 13.3803 121.864 12.829 121.5 12.4942C121.137 12.1594 120.582 11.992 119.838 11.992C119.082 11.992 118.527 12.2749 118.175 12.8406C117.823 13.4063 117.638 14.3097 117.621 15.5508V16.4427C117.621 17.7877 117.789 18.7488 118.123 19.3261C118.464 19.9033 119.047 20.192 119.872 20.192C120.571 20.192 121.105 20.0274 121.474 19.6984C121.844 19.3694 122.04 18.847 122.063 18.1312H125.085Z" fill="#8794BA" />
    <path d="M133.025 19.049C133.025 18.6045 132.867 18.2581 132.549 18.0099C132.237 17.7617 131.686 17.5048 130.895 17.2393C130.104 16.9738 129.458 16.7169 128.956 16.4687C127.322 15.6663 126.505 14.5637 126.505 13.161C126.505 12.4625 126.707 11.8477 127.111 11.3166C127.521 10.7798 128.098 10.3642 128.843 10.0698C129.588 9.76959 130.425 9.6195 131.354 9.6195C132.26 9.6195 133.071 9.78113 133.787 10.1044C134.509 10.4277 135.069 10.8895 135.467 11.4898C135.865 12.0844 136.065 12.7655 136.065 13.5333H133.034C133.034 13.0195 132.875 12.6212 132.558 12.3384C132.246 12.0555 131.822 11.9141 131.285 11.9141C130.742 11.9141 130.312 12.0353 129.995 12.2778C129.683 12.5144 129.527 12.8175 129.527 13.1869C129.527 13.5102 129.7 13.8046 130.047 14.0701C130.393 14.3299 131.002 14.6012 131.874 14.8841C132.745 15.1612 133.461 15.4613 134.021 15.7846C135.383 16.5697 136.065 17.652 136.065 19.0317C136.065 20.1342 135.649 21.0001 134.818 21.6293C133.986 22.2585 132.846 22.5731 131.397 22.5731C130.376 22.5731 129.449 22.3913 128.618 22.0276C127.792 21.6582 127.169 21.156 126.748 20.521C126.332 19.8802 126.124 19.1442 126.124 18.313H129.172C129.172 18.9884 129.345 19.4877 129.692 19.811C130.044 20.1285 130.612 20.2872 131.397 20.2872C131.9 20.2872 132.295 20.1804 132.584 19.9668C132.878 19.7475 133.025 19.4415 133.025 19.049Z" fill="#8794BA" />
</svg>
