<svg width="184" height="40" viewBox="0 0 184 40" fill="none" xmlns="http://www.w3.org/2000/svg">
<path d="M36.4774 8.7054C32.8769 3.44814 26.8324 -0.000732422 19.9831 -0.000732422C8.94672 -0.000732422 0 8.95356 0 19.9993C0 21.6062 0.189373 23.169 0.546984 24.6663L10.7231 14.4815C11.6986 13.5052 13.2802 13.5052 14.2557 14.4815L22.4809 22.7137L36.4774 8.7054Z" fill="#EF2A82"/>
<path d="M38.8525 13.3994L24.2472 28.017C23.2717 28.9934 21.6902 28.9934 20.7147 28.017L12.4894 19.7848L2.53203 29.7506C5.95045 35.8655 12.4844 39.9993 19.9831 39.9993C31.0194 39.9993 39.9661 31.045 39.9661 19.9993C39.9661 17.6866 39.5739 15.4657 38.8525 13.3994Z" fill="#EF2A82"/>
<path d="M62.7551 25.0552H57.5534L56.645 27.9992H52.5896L58.3645 12.2401H61.9332L67.7514 27.9992H63.6744L62.7551 25.0552ZM58.4618 22.122H61.8467L60.1489 16.6561L58.4618 22.122Z" fill="white"/>
<path d="M82.0588 27.9992H78.2846L72.7044 18.1931V27.9992H68.9085V12.2401H72.7044L78.2738 22.0463V12.2401H82.0588V27.9992Z" fill="white"/>
<path d="M93.5978 25.0552H88.3961L87.4877 27.9992H83.4323L89.2072 12.2401H92.7759L98.5941 27.9992H94.517L93.5978 25.0552ZM89.3045 22.122H92.6894L90.9915 16.6561L89.3045 22.122Z" fill="white"/>
<path d="M103.547 25.0769H110.155V27.9992H99.7512V12.2401H103.547V25.0769Z" fill="white"/>
<path d="M114.491 19.0806L117.389 12.2401H121.488L116.416 22.3385V27.9992H112.566V22.3385L107.505 12.2401H111.582L114.491 19.0806Z" fill="white"/>
<path d="M135.19 15.1733H130.464V27.9992H126.668V15.1733H122.029V12.2401H135.19V15.1733Z" fill="white"/>
<path d="M140.846 27.9992H137.061V12.2401H140.846V27.9992Z" fill="white"/>
<path d="M156.224 22.6632C156.174 23.76 155.878 24.7305 155.337 25.5747C154.797 26.4118 154.036 27.0612 153.055 27.523C152.082 27.9848 150.968 28.2157 149.714 28.2157C147.645 28.2157 146.015 27.541 144.826 26.1917C143.636 24.8424 143.041 22.9374 143.041 20.4768V19.6976C143.041 18.1534 143.308 16.8041 143.842 15.6495C144.382 14.4878 145.157 13.5931 146.167 12.9653C147.176 12.3303 148.344 12.0128 149.67 12.0128C151.581 12.0128 153.117 12.5179 154.277 13.5281C155.438 14.5311 156.098 15.9165 156.256 17.6844H152.471C152.443 16.7247 152.201 16.0356 151.747 15.6171C151.293 15.1986 150.601 14.9893 149.67 14.9893C148.726 14.9893 148.034 15.3429 147.594 16.05C147.154 16.7571 146.924 17.8864 146.902 19.4378V20.5526C146.902 22.2339 147.111 23.4353 147.529 24.1569C147.955 24.8784 148.683 25.2392 149.714 25.2392C150.586 25.2392 151.253 25.0336 151.714 24.6223C152.176 24.211 152.421 23.558 152.45 22.6632H156.224Z" fill="white"/>
<path d="M166.141 23.8105C166.141 23.2549 165.943 22.822 165.546 22.5117C165.157 22.2014 164.468 21.8803 163.48 21.5484C162.493 21.2165 161.685 20.8954 161.058 20.5851C159.018 19.5821 157.998 18.2039 157.998 16.4505C157.998 15.5774 158.25 14.8089 158.755 14.1451C159.266 13.474 159.987 12.9545 160.917 12.5865C161.848 12.2112 162.893 12.0236 164.054 12.0236C165.186 12.0236 166.198 12.2257 167.092 12.6298C167.994 13.0338 168.693 13.6111 169.19 14.3615C169.688 15.1048 169.937 15.9562 169.937 16.9159H166.152C166.152 16.2737 165.953 15.7758 165.557 15.4222C165.168 15.0687 164.638 14.8919 163.967 14.8919C163.289 14.8919 162.752 15.0434 162.356 15.3465C161.966 15.6423 161.772 16.0211 161.772 16.483C161.772 16.887 161.988 17.255 162.421 17.587C162.853 17.9117 163.614 18.2508 164.703 18.6044C165.791 18.9507 166.685 19.3259 167.384 19.73C169.086 20.7114 169.937 22.0643 169.937 23.7889C169.937 25.1671 169.418 26.2494 168.379 27.0359C167.341 27.8224 165.917 28.2157 164.108 28.2157C162.832 28.2157 161.674 27.9884 160.636 27.5338C159.605 27.072 158.827 26.4442 158.3 25.6505C157.781 24.8496 157.522 23.9296 157.522 22.8905H161.328C161.328 23.7347 161.545 24.3589 161.977 24.763C162.417 25.1598 163.127 25.3583 164.108 25.3583C164.735 25.3583 165.229 25.2248 165.589 24.9578C165.957 24.6836 166.141 24.3012 166.141 23.8105Z" fill="white"/>
</svg>
