<svg width="361" height="248" viewBox="0 0 361 248" fill="none" xmlns="http://www.w3.org/2000/svg">
<g filter="url(#filter0_d_747_3290)">
<rect y="0.337402" width="361" height="246.683" rx="30" fill="white"/>
<path d="M279.749 75.9953V77.2L272.764 92.8608H270.505L277.478 77.756H268.351V75.9953H279.749ZM284.324 91.0653H284.544C285.78 91.0653 286.784 90.8916 287.556 90.5441C288.328 90.1966 288.923 89.7294 289.34 89.1425C289.757 88.5556 290.042 87.8953 290.197 87.1617C290.351 86.4204 290.429 85.6597 290.429 84.8798V82.2967C290.429 81.5322 290.34 80.8526 290.162 80.258C289.992 79.6634 289.753 79.1653 289.444 78.7637C289.143 78.3622 288.799 78.0572 288.413 77.8487C288.027 77.6402 287.618 77.5359 287.185 77.5359C286.691 77.5359 286.247 77.6363 285.853 77.8371C285.467 78.0301 285.139 78.3043 284.868 78.6595C284.606 79.0147 284.405 79.4317 284.266 79.9105C284.127 80.3893 284.058 80.9105 284.058 81.4743C284.058 81.9762 284.119 82.4627 284.243 82.9338C284.367 83.4048 284.556 83.8296 284.811 84.208C285.065 84.5864 285.382 84.8875 285.76 85.1115C286.147 85.3277 286.598 85.4358 287.116 85.4358C287.594 85.4358 288.042 85.3431 288.459 85.1578C288.884 84.9647 289.259 84.706 289.583 84.3817C289.915 84.0497 290.178 83.6751 290.371 83.2581C290.571 82.8411 290.687 82.4048 290.718 81.9492H291.737C291.737 82.5901 291.61 83.2234 291.355 83.8489C291.108 84.4667 290.761 85.0304 290.313 85.5401C289.865 86.0497 289.34 86.459 288.737 86.7679C288.135 87.0691 287.479 87.2196 286.768 87.2196C285.934 87.2196 285.212 87.0575 284.602 86.7331C283.992 86.4088 283.49 85.9764 283.096 85.4358C282.71 84.8952 282.421 84.2929 282.227 83.6288C282.042 82.9569 281.949 82.2774 281.949 81.5901C281.949 80.787 282.061 80.0341 282.285 79.3313C282.509 78.6286 282.841 78.0108 283.282 77.478C283.722 76.9374 284.266 76.5166 284.915 76.2154C285.571 75.9142 286.328 75.7636 287.185 75.7636C288.15 75.7636 288.973 75.9567 289.652 76.3428C290.332 76.7289 290.884 77.2463 291.309 77.895C291.741 78.5437 292.058 79.2734 292.259 80.0843C292.46 80.8951 292.56 81.7291 292.56 82.5863V83.3624C292.56 84.235 292.502 85.123 292.386 86.0266C292.278 86.9223 292.066 87.7795 291.749 88.5981C291.44 89.4166 290.988 90.1503 290.394 90.7989C289.799 91.4399 289.023 91.9495 288.066 92.3279C287.116 92.6986 285.942 92.8839 284.544 92.8839H284.324V91.0653ZM295.351 80.1306V79.2387C295.351 78.5977 295.49 78.0147 295.769 77.4896C296.047 76.9645 296.444 76.5436 296.962 76.227C297.479 75.9104 298.093 75.7521 298.803 75.7521C299.529 75.7521 300.147 75.9104 300.657 76.227C301.174 76.5436 301.572 76.9645 301.85 77.4896C302.128 78.0147 302.267 78.5977 302.267 79.2387V80.1306C302.267 80.7561 302.128 81.3314 301.85 81.8565C301.58 82.3816 301.186 82.8025 300.668 83.1191C300.159 83.4357 299.545 83.594 298.827 83.594C298.108 83.594 297.487 83.4357 296.962 83.1191C296.444 82.8025 296.047 82.3816 295.769 81.8565C295.49 81.3314 295.351 80.7561 295.351 80.1306ZM296.962 79.2387V80.1306C296.962 80.4858 297.027 80.8217 297.159 81.1383C297.298 81.455 297.506 81.7137 297.784 81.9144C298.062 82.1075 298.41 82.204 298.827 82.204C299.244 82.204 299.587 82.1075 299.857 81.9144C300.128 81.7137 300.329 81.455 300.46 81.1383C300.591 80.8217 300.657 80.4858 300.657 80.1306V79.2387C300.657 78.8757 300.587 78.5359 300.448 78.2193C300.317 77.895 300.112 77.6363 299.834 77.4432C299.564 77.2425 299.22 77.1421 298.803 77.1421C298.394 77.1421 298.05 77.2425 297.772 77.4432C297.502 77.6363 297.298 77.895 297.159 78.2193C297.027 78.5359 296.962 78.8757 296.962 79.2387ZM303.564 89.629V88.7255C303.564 88.0923 303.703 87.5131 303.981 86.988C304.259 86.4629 304.657 86.042 305.174 85.7254C305.692 85.4088 306.306 85.2505 307.016 85.2505C307.742 85.2505 308.36 85.4088 308.869 85.7254C309.387 86.042 309.784 86.4629 310.062 86.988C310.34 87.5131 310.479 88.0923 310.479 88.7255V89.629C310.479 90.2622 310.34 90.8414 310.062 91.3665C309.792 91.8916 309.398 92.3125 308.881 92.6291C308.371 92.9457 307.757 93.104 307.039 93.104C306.321 93.104 305.703 92.9457 305.186 92.6291C304.668 92.3125 304.267 91.8916 303.981 91.3665C303.703 90.8414 303.564 90.2622 303.564 89.629ZM305.174 88.7255V89.629C305.174 89.9842 305.24 90.324 305.371 90.6483C305.51 90.965 305.719 91.2237 305.997 91.4244C306.275 91.6175 306.622 91.714 307.039 91.714C307.456 91.714 307.8 91.6175 308.07 91.4244C308.348 91.2237 308.553 90.965 308.684 90.6483C308.815 90.3317 308.881 89.9919 308.881 89.629V88.7255C308.881 88.3625 308.811 88.0228 308.672 87.7062C308.541 87.3895 308.337 87.1347 308.059 86.9416C307.788 86.7409 307.441 86.6405 307.016 86.6405C306.607 86.6405 306.263 86.7409 305.985 86.9416C305.715 87.1347 305.51 87.3895 305.371 87.7062C305.24 88.0228 305.174 88.3625 305.174 88.7255ZM307.549 78.3931L299.313 91.575L298.108 90.8105L306.344 77.6286L307.549 78.3931Z" fill="#0088F0"/>
<path d="M270.615 108.342V108.22C270.615 107.808 270.675 107.425 270.795 107.073C270.915 106.716 271.088 106.408 271.313 106.147C271.539 105.883 271.812 105.678 272.133 105.534C272.454 105.386 272.813 105.312 273.212 105.312C273.614 105.312 273.975 105.386 274.296 105.534C274.62 105.678 274.895 105.883 275.121 106.147C275.35 106.408 275.524 106.716 275.644 107.073C275.764 107.425 275.824 107.808 275.824 108.22V108.342C275.824 108.754 275.764 109.137 275.644 109.489C275.524 109.842 275.35 110.15 275.121 110.415C274.895 110.676 274.622 110.88 274.301 111.028C273.984 111.173 273.624 111.245 273.222 111.245C272.82 111.245 272.459 111.173 272.138 111.028C271.817 110.88 271.542 110.676 271.313 110.415C271.088 110.15 270.915 109.842 270.795 109.489C270.675 109.137 270.615 108.754 270.615 108.342ZM271.593 108.22V108.342C271.593 108.627 271.627 108.897 271.694 109.151C271.761 109.401 271.861 109.623 271.995 109.817C272.133 110.011 272.304 110.164 272.508 110.277C272.713 110.386 272.951 110.441 273.222 110.441C273.49 110.441 273.725 110.386 273.926 110.277C274.13 110.164 274.299 110.011 274.433 109.817C274.567 109.623 274.668 109.401 274.735 109.151C274.805 108.897 274.84 108.627 274.84 108.342V108.22C274.84 107.938 274.805 107.672 274.735 107.422C274.668 107.168 274.565 106.944 274.428 106.75C274.294 106.553 274.125 106.397 273.92 106.285C273.719 106.172 273.483 106.115 273.212 106.115C272.944 106.115 272.707 106.172 272.503 106.285C272.302 106.397 272.133 106.553 271.995 106.75C271.861 106.944 271.761 107.168 271.694 107.422C271.627 107.672 271.593 107.938 271.593 108.22ZM278.029 106.517V113.339H277.045V105.417H277.944L278.029 106.517ZM281.884 108.231V108.342C281.884 108.758 281.835 109.144 281.736 109.5C281.637 109.852 281.493 110.159 281.302 110.42C281.116 110.681 280.885 110.884 280.61 111.028C280.335 111.173 280.019 111.245 279.663 111.245C279.3 111.245 278.979 111.185 278.701 111.065C278.422 110.945 278.186 110.771 277.992 110.542C277.798 110.312 277.643 110.037 277.527 109.717C277.414 109.396 277.336 109.034 277.294 108.633V108.04C277.336 107.617 277.416 107.238 277.532 106.903C277.648 106.568 277.802 106.283 277.992 106.047C278.186 105.807 278.42 105.625 278.695 105.502C278.97 105.375 279.288 105.312 279.647 105.312C280.007 105.312 280.326 105.382 280.604 105.523C280.883 105.661 281.117 105.858 281.308 106.115C281.498 106.373 281.641 106.681 281.736 107.041C281.835 107.397 281.884 107.794 281.884 108.231ZM280.9 108.342V108.231C280.9 107.945 280.871 107.677 280.811 107.427C280.751 107.173 280.657 106.951 280.53 106.761C280.407 106.567 280.248 106.415 280.054 106.306C279.861 106.193 279.63 106.137 279.362 106.137C279.115 106.137 278.9 106.179 278.717 106.263C278.537 106.348 278.383 106.463 278.256 106.607C278.13 106.748 278.026 106.91 277.944 107.094C277.867 107.274 277.809 107.46 277.77 107.654V109.024C277.84 109.271 277.939 109.503 278.066 109.722C278.193 109.937 278.362 110.111 278.574 110.245C278.785 110.376 279.051 110.441 279.372 110.441C279.637 110.441 279.864 110.386 280.054 110.277C280.248 110.164 280.407 110.011 280.53 109.817C280.657 109.623 280.751 109.401 280.811 109.151C280.871 108.897 280.9 108.627 280.9 108.342ZM285.528 105.417V106.168H282.434V105.417H285.528ZM283.481 104.027H284.459V109.722C284.459 109.916 284.489 110.062 284.549 110.161C284.609 110.26 284.687 110.325 284.782 110.356C284.877 110.388 284.979 110.404 285.089 110.404C285.17 110.404 285.254 110.397 285.342 110.383C285.434 110.365 285.503 110.351 285.549 110.341L285.554 111.139C285.476 111.164 285.374 111.187 285.247 111.208C285.124 111.233 284.974 111.245 284.798 111.245C284.558 111.245 284.338 111.197 284.137 111.102C283.936 111.007 283.775 110.848 283.656 110.626C283.539 110.401 283.481 110.097 283.481 109.717V104.027ZM287.738 105.417V111.139H286.754V105.417H287.738ZM286.68 103.9C286.68 103.741 286.728 103.607 286.823 103.498C286.922 103.389 287.066 103.334 287.257 103.334C287.444 103.334 287.586 103.389 287.685 103.498C287.787 103.607 287.838 103.741 287.838 103.9C287.838 104.051 287.787 104.182 287.685 104.291C287.586 104.397 287.444 104.45 287.257 104.45C287.066 104.45 286.922 104.397 286.823 104.291C286.728 104.182 286.68 104.051 286.68 103.9ZM289.049 108.342V108.22C289.049 107.808 289.109 107.425 289.229 107.073C289.349 106.716 289.522 106.408 289.747 106.147C289.973 105.883 290.246 105.678 290.567 105.534C290.888 105.386 291.248 105.312 291.646 105.312C292.048 105.312 292.409 105.386 292.73 105.534C293.054 105.678 293.329 105.883 293.555 106.147C293.784 106.408 293.959 106.716 294.078 107.073C294.198 107.425 294.258 107.808 294.258 108.22V108.342C294.258 108.754 294.198 109.137 294.078 109.489C293.959 109.842 293.784 110.15 293.555 110.415C293.329 110.676 293.056 110.88 292.735 111.028C292.418 111.173 292.058 111.245 291.656 111.245C291.255 111.245 290.893 111.173 290.572 111.028C290.252 110.88 289.977 110.676 289.747 110.415C289.522 110.15 289.349 109.842 289.229 109.489C289.109 109.137 289.049 108.754 289.049 108.342ZM290.028 108.22V108.342C290.028 108.627 290.061 108.897 290.128 109.151C290.195 109.401 290.296 109.623 290.43 109.817C290.567 110.011 290.738 110.164 290.943 110.277C291.147 110.386 291.385 110.441 291.656 110.441C291.924 110.441 292.159 110.386 292.36 110.277C292.564 110.164 292.733 110.011 292.867 109.817C293.001 109.623 293.102 109.401 293.169 109.151C293.239 108.897 293.275 108.627 293.275 108.342V108.22C293.275 107.938 293.239 107.672 293.169 107.422C293.102 107.168 293 106.944 292.862 106.75C292.728 106.553 292.559 106.397 292.354 106.285C292.154 106.172 291.917 106.115 291.646 106.115C291.378 106.115 291.142 106.172 290.937 106.285C290.736 106.397 290.567 106.553 290.43 106.75C290.296 106.944 290.195 107.168 290.128 107.422C290.061 107.672 290.028 107.938 290.028 108.22ZM296.463 106.639V111.139H295.485V105.417H296.41L296.463 106.639ZM296.231 108.061L295.823 108.046C295.827 107.654 295.885 107.293 295.998 106.962C296.111 106.627 296.269 106.336 296.474 106.089C296.678 105.842 296.922 105.652 297.204 105.518C297.489 105.38 297.805 105.312 298.15 105.312C298.432 105.312 298.686 105.35 298.912 105.428C299.137 105.502 299.329 105.622 299.488 105.788C299.65 105.953 299.774 106.168 299.858 106.433C299.943 106.694 299.985 107.013 299.985 107.39V111.139H299.002V107.379C299.002 107.08 298.958 106.84 298.869 106.66C298.781 106.477 298.653 106.345 298.483 106.263C298.314 106.179 298.106 106.137 297.859 106.137C297.616 106.137 297.394 106.188 297.193 106.29C296.996 106.392 296.825 106.533 296.68 106.713C296.539 106.893 296.428 107.099 296.347 107.332C296.269 107.561 296.231 107.804 296.231 108.061ZM307.267 103.397V111.139H306.289V104.619L304.316 105.338V104.455L307.114 103.397H307.267Z" fill="#8794BA"/>
<path d="M279.482 155.684C279.482 156.711 279.243 157.583 278.764 158.301C278.293 159.012 277.652 159.552 276.841 159.923C276.038 160.294 275.131 160.479 274.119 160.479C273.107 160.479 272.196 160.294 271.385 159.923C270.575 159.552 269.934 159.012 269.463 158.301C268.991 157.583 268.756 156.711 268.756 155.684C268.756 155.012 268.883 154.398 269.138 153.842C269.401 153.278 269.768 152.788 270.239 152.371C270.717 151.954 271.281 151.633 271.93 151.409C272.586 151.178 273.308 151.062 274.096 151.062C275.131 151.062 276.054 151.263 276.864 151.664C277.675 152.058 278.312 152.602 278.776 153.297C279.247 153.992 279.482 154.788 279.482 155.684ZM277.328 155.637C277.328 155.012 277.193 154.46 276.922 153.981C276.652 153.494 276.274 153.116 275.787 152.846C275.301 152.575 274.737 152.44 274.096 152.44C273.44 152.44 272.872 152.575 272.393 152.846C271.922 153.116 271.555 153.494 271.293 153.981C271.03 154.46 270.899 155.012 270.899 155.637C270.899 156.286 271.026 156.842 271.281 157.305C271.544 157.761 271.914 158.112 272.393 158.359C272.88 158.599 273.455 158.718 274.119 158.718C274.783 158.718 275.355 158.599 275.833 158.359C276.312 158.112 276.679 157.761 276.934 157.305C277.196 156.842 277.328 156.286 277.328 155.637ZM279.088 147.772C279.088 148.591 278.872 149.328 278.44 149.985C278.007 150.641 277.416 151.158 276.667 151.537C275.918 151.915 275.069 152.104 274.119 152.104C273.154 152.104 272.293 151.915 271.536 151.537C270.787 151.158 270.2 150.641 269.775 149.985C269.351 149.328 269.138 148.591 269.138 147.772C269.138 146.791 269.351 145.957 269.775 145.27C270.208 144.583 270.798 144.058 271.548 143.695C272.297 143.332 273.15 143.15 274.107 143.15C275.073 143.15 275.93 143.332 276.679 143.695C277.428 144.058 278.015 144.583 278.44 145.27C278.872 145.957 279.088 146.791 279.088 147.772ZM276.945 147.807C276.945 147.243 276.826 146.745 276.586 146.313C276.347 145.88 276.015 145.54 275.59 145.293C275.165 145.038 274.671 144.911 274.107 144.911C273.544 144.911 273.05 145.031 272.625 145.27C272.208 145.502 271.88 145.834 271.64 146.266C271.409 146.699 271.293 147.212 271.293 147.807C271.293 148.386 271.409 148.892 271.64 149.324C271.88 149.757 272.212 150.093 272.636 150.332C273.061 150.571 273.555 150.691 274.119 150.691C274.683 150.691 275.173 150.571 275.59 150.332C276.015 150.093 276.347 149.757 276.586 149.324C276.826 148.892 276.945 148.386 276.945 147.807ZM293.093 143.382V144.587L286.108 160.247H283.849L290.822 145.143H281.695V143.382H293.093ZM295.351 147.517V146.625C295.351 145.984 295.49 145.401 295.769 144.876C296.047 144.351 296.444 143.93 296.962 143.614C297.479 143.297 298.093 143.139 298.803 143.139C299.529 143.139 300.147 143.297 300.657 143.614C301.174 143.93 301.572 144.351 301.85 144.876C302.128 145.401 302.267 145.984 302.267 146.625V147.517C302.267 148.143 302.128 148.718 301.85 149.243C301.58 149.768 301.186 150.189 300.668 150.506C300.159 150.822 299.545 150.981 298.827 150.981C298.108 150.981 297.487 150.822 296.962 150.506C296.444 150.189 296.047 149.768 295.769 149.243C295.49 148.718 295.351 148.143 295.351 147.517ZM296.962 146.625V147.517C296.962 147.872 297.027 148.208 297.159 148.525C297.298 148.842 297.506 149.1 297.784 149.301C298.062 149.494 298.41 149.591 298.827 149.591C299.244 149.591 299.587 149.494 299.857 149.301C300.128 149.1 300.329 148.842 300.46 148.525C300.591 148.208 300.657 147.872 300.657 147.517V146.625C300.657 146.262 300.587 145.923 300.448 145.606C300.317 145.282 300.112 145.023 299.834 144.83C299.564 144.629 299.22 144.529 298.803 144.529C298.394 144.529 298.05 144.629 297.772 144.83C297.502 145.023 297.298 145.282 297.159 145.606C297.027 145.923 296.962 146.262 296.962 146.625ZM303.564 157.016V156.112C303.564 155.479 303.703 154.9 303.981 154.375C304.259 153.85 304.657 153.429 305.174 153.112C305.692 152.795 306.306 152.637 307.016 152.637C307.742 152.637 308.36 152.795 308.869 153.112C309.387 153.429 309.784 153.85 310.062 154.375C310.34 154.9 310.479 155.479 310.479 156.112V157.016C310.479 157.649 310.34 158.228 310.062 158.753C309.792 159.278 309.398 159.699 308.881 160.016C308.371 160.332 307.757 160.491 307.039 160.491C306.321 160.491 305.703 160.332 305.186 160.016C304.668 159.699 304.267 159.278 303.981 158.753C303.703 158.228 303.564 157.649 303.564 157.016ZM305.174 156.112V157.016C305.174 157.371 305.24 157.711 305.371 158.035C305.51 158.352 305.719 158.61 305.997 158.811C306.275 159.004 306.622 159.101 307.039 159.101C307.456 159.101 307.8 159.004 308.07 158.811C308.348 158.61 308.553 158.352 308.684 158.035C308.815 157.718 308.881 157.379 308.881 157.016V156.112C308.881 155.749 308.811 155.409 308.672 155.093C308.541 154.776 308.337 154.521 308.059 154.328C307.788 154.128 307.441 154.027 307.016 154.027C306.607 154.027 306.263 154.128 305.985 154.328C305.715 154.521 305.51 154.776 305.371 155.093C305.24 155.409 305.174 155.749 305.174 156.112ZM307.549 145.78L299.313 158.962L298.108 158.197L306.344 145.015L307.549 145.78Z" fill="#EF2A82"/>
<path d="M270.615 175.728V175.607C270.615 175.194 270.675 174.812 270.795 174.459C270.915 174.103 271.088 173.795 271.313 173.534C271.539 173.269 271.812 173.065 272.133 172.92C272.454 172.772 272.813 172.698 273.212 172.698C273.614 172.698 273.975 172.772 274.296 172.92C274.62 173.065 274.895 173.269 275.121 173.534C275.35 173.795 275.524 174.103 275.644 174.459C275.764 174.812 275.824 175.194 275.824 175.607V175.728C275.824 176.141 275.764 176.523 275.644 176.876C275.524 177.228 275.35 177.537 275.121 177.801C274.895 178.062 274.622 178.267 274.301 178.415C273.984 178.559 273.624 178.632 273.222 178.632C272.82 178.632 272.459 178.559 272.138 178.415C271.817 178.267 271.542 178.062 271.313 177.801C271.088 177.537 270.915 177.228 270.795 176.876C270.675 176.523 270.615 176.141 270.615 175.728ZM271.593 175.607V175.728C271.593 176.014 271.627 176.284 271.694 176.537C271.761 176.788 271.861 177.01 271.995 177.204C272.133 177.398 272.304 177.551 272.508 177.664C272.713 177.773 272.951 177.828 273.222 177.828C273.49 177.828 273.725 177.773 273.926 177.664C274.13 177.551 274.299 177.398 274.433 177.204C274.567 177.01 274.668 176.788 274.735 176.537C274.805 176.284 274.84 176.014 274.84 175.728V175.607C274.84 175.325 274.805 175.059 274.735 174.808C274.668 174.554 274.565 174.331 274.428 174.137C274.294 173.939 274.125 173.784 273.92 173.671C273.719 173.558 273.483 173.502 273.212 173.502C272.944 173.502 272.707 173.558 272.503 173.671C272.302 173.784 272.133 173.939 271.995 174.137C271.861 174.331 271.761 174.554 271.694 174.808C271.627 175.059 271.593 175.325 271.593 175.607ZM278.029 173.904V180.726H277.045V172.804H277.944L278.029 173.904ZM281.884 175.617V175.728C281.884 176.144 281.835 176.53 281.736 176.886C281.637 177.239 281.493 177.546 281.302 177.807C281.116 178.067 280.885 178.27 280.61 178.415C280.335 178.559 280.019 178.632 279.663 178.632C279.3 178.632 278.979 178.572 278.701 178.452C278.422 178.332 278.186 178.157 277.992 177.928C277.798 177.699 277.643 177.424 277.527 177.103C277.414 176.782 277.336 176.421 277.294 176.019V175.427C277.336 175.004 277.416 174.625 277.532 174.29C277.648 173.955 277.802 173.67 277.992 173.433C278.186 173.194 278.42 173.012 278.695 172.889C278.97 172.762 279.288 172.698 279.647 172.698C280.007 172.698 280.326 172.769 280.604 172.91C280.883 173.047 281.117 173.245 281.308 173.502C281.498 173.759 281.641 174.068 281.736 174.427C281.835 174.784 281.884 175.18 281.884 175.617ZM280.9 175.728V175.617C280.9 175.332 280.871 175.064 280.811 174.814C280.751 174.56 280.657 174.338 280.53 174.147C280.407 173.953 280.248 173.802 280.054 173.692C279.861 173.58 279.63 173.523 279.362 173.523C279.115 173.523 278.9 173.566 278.717 173.65C278.537 173.735 278.383 173.849 278.256 173.994C278.13 174.135 278.026 174.297 277.944 174.48C277.867 174.66 277.809 174.847 277.77 175.041V176.411C277.84 176.657 277.939 176.89 278.066 177.109C278.193 177.324 278.362 177.498 278.574 177.632C278.785 177.763 279.051 177.828 279.372 177.828C279.637 177.828 279.864 177.773 280.054 177.664C280.248 177.551 280.407 177.398 280.53 177.204C280.657 177.01 280.751 176.788 280.811 176.537C280.871 176.284 280.9 176.014 280.9 175.728ZM285.528 172.804V173.555H282.434V172.804H285.528ZM283.481 171.413H284.459V177.109C284.459 177.302 284.489 177.449 284.549 177.547C284.609 177.646 284.687 177.711 284.782 177.743C284.877 177.775 284.979 177.791 285.089 177.791C285.17 177.791 285.254 177.784 285.342 177.77C285.434 177.752 285.503 177.738 285.549 177.727L285.554 178.526C285.476 178.55 285.374 178.573 285.247 178.595C285.124 178.619 284.974 178.632 284.798 178.632C284.558 178.632 284.338 178.584 284.137 178.489C283.936 178.394 283.775 178.235 283.656 178.013C283.539 177.787 283.481 177.484 283.481 177.103V171.413ZM287.738 172.804V178.526H286.754V172.804H287.738ZM286.68 171.286C286.68 171.128 286.728 170.994 286.823 170.884C286.922 170.775 287.066 170.721 287.257 170.721C287.444 170.721 287.586 170.775 287.685 170.884C287.787 170.994 287.838 171.128 287.838 171.286C287.838 171.438 287.787 171.568 287.685 171.678C287.586 171.783 287.444 171.836 287.257 171.836C287.066 171.836 286.922 171.783 286.823 171.678C286.728 171.568 286.68 171.438 286.68 171.286ZM289.049 175.728V175.607C289.049 175.194 289.109 174.812 289.229 174.459C289.349 174.103 289.522 173.795 289.747 173.534C289.973 173.269 290.246 173.065 290.567 172.92C290.888 172.772 291.248 172.698 291.646 172.698C292.048 172.698 292.409 172.772 292.73 172.92C293.054 173.065 293.329 173.269 293.555 173.534C293.784 173.795 293.959 174.103 294.078 174.459C294.198 174.812 294.258 175.194 294.258 175.607V175.728C294.258 176.141 294.198 176.523 294.078 176.876C293.959 177.228 293.784 177.537 293.555 177.801C293.329 178.062 293.056 178.267 292.735 178.415C292.418 178.559 292.058 178.632 291.656 178.632C291.255 178.632 290.893 178.559 290.572 178.415C290.252 178.267 289.977 178.062 289.747 177.801C289.522 177.537 289.349 177.228 289.229 176.876C289.109 176.523 289.049 176.141 289.049 175.728ZM290.028 175.607V175.728C290.028 176.014 290.061 176.284 290.128 176.537C290.195 176.788 290.296 177.01 290.43 177.204C290.567 177.398 290.738 177.551 290.943 177.664C291.147 177.773 291.385 177.828 291.656 177.828C291.924 177.828 292.159 177.773 292.36 177.664C292.564 177.551 292.733 177.398 292.867 177.204C293.001 177.01 293.102 176.788 293.169 176.537C293.239 176.284 293.275 176.014 293.275 175.728V175.607C293.275 175.325 293.239 175.059 293.169 174.808C293.102 174.554 293 174.331 292.862 174.137C292.728 173.939 292.559 173.784 292.354 173.671C292.154 173.558 291.917 173.502 291.646 173.502C291.378 173.502 291.142 173.558 290.937 173.671C290.736 173.784 290.567 173.939 290.43 174.137C290.296 174.331 290.195 174.554 290.128 174.808C290.061 175.059 290.028 175.325 290.028 175.607ZM296.463 174.026V178.526H295.485V172.804H296.41L296.463 174.026ZM296.231 175.448L295.823 175.432C295.827 175.041 295.885 174.68 295.998 174.348C296.111 174.013 296.269 173.722 296.474 173.476C296.678 173.229 296.922 173.038 297.204 172.905C297.489 172.767 297.805 172.698 298.15 172.698C298.432 172.698 298.686 172.737 298.912 172.815C299.137 172.889 299.329 173.009 299.488 173.174C299.65 173.34 299.774 173.555 299.858 173.819C299.943 174.08 299.985 174.399 299.985 174.777V178.526H299.002V174.766C299.002 174.466 298.958 174.227 298.869 174.047C298.781 173.863 298.653 173.731 298.483 173.65C298.314 173.566 298.106 173.523 297.859 173.523C297.616 173.523 297.394 173.574 297.193 173.677C296.996 173.779 296.825 173.92 296.68 174.1C296.539 174.279 296.428 174.486 296.347 174.718C296.269 174.947 296.231 175.191 296.231 175.448ZM309.097 177.722V178.526H304.057V177.822L306.579 175.014C306.89 174.669 307.129 174.376 307.299 174.137C307.471 173.893 307.591 173.677 307.658 173.486C307.729 173.292 307.764 173.095 307.764 172.894C307.764 172.64 307.711 172.411 307.605 172.206C307.503 171.998 307.352 171.833 307.151 171.709C306.95 171.586 306.706 171.524 306.421 171.524C306.079 171.524 305.793 171.591 305.564 171.725C305.339 171.856 305.169 172.039 305.056 172.275C304.944 172.511 304.887 172.783 304.887 173.09H303.909C303.909 172.656 304.004 172.259 304.195 171.9C304.385 171.54 304.667 171.255 305.041 171.043C305.414 170.828 305.874 170.721 306.421 170.721C306.907 170.721 307.323 170.807 307.669 170.98C308.014 171.149 308.279 171.389 308.462 171.699C308.649 172.006 308.742 172.365 308.742 172.778C308.742 173.003 308.703 173.232 308.626 173.465C308.552 173.694 308.448 173.923 308.314 174.153C308.183 174.382 308.03 174.607 307.854 174.829C307.681 175.051 307.496 175.27 307.299 175.485L305.236 177.722H309.097Z" fill="#8794BA"/>
<path d="M138.798 77.0027C138.746 75.6261 139.821 74.4623 141.198 74.4723C153.196 74.5589 164.871 78.5229 174.461 85.8076C184.714 93.5962 191.949 104.699 194.934 117.224C197.918 129.749 196.468 142.922 190.829 154.498C185.19 166.073 175.712 175.335 164.01 180.706C152.308 186.077 139.106 187.224 126.652 183.952C114.199 180.68 103.266 173.191 95.7151 162.762C88.1645 152.332 84.4638 139.607 85.2435 126.755C85.9728 114.734 90.5793 103.298 98.3365 94.1442C99.2271 93.0932 100.81 93.0373 101.82 93.9742C102.83 94.911 102.884 96.4855 101.998 97.5404C95.0235 105.845 90.8824 116.188 90.2231 127.057C89.5132 138.757 92.8822 150.341 99.7561 159.836C106.63 169.331 116.583 176.148 127.92 179.127C139.257 182.106 151.276 181.062 161.929 176.172C172.583 171.283 181.211 162.851 186.344 152.313C191.478 141.775 192.798 129.783 190.081 118.381C187.364 106.978 180.777 96.8706 171.443 89.7801C162.773 83.1936 152.23 79.5891 141.386 79.4629C140.009 79.4469 138.85 78.3793 138.798 77.0027Z" fill="#EF2A82"/>
<path d="M137.812 53.4605C137.735 51.4738 139.284 49.7921 141.272 49.8039C156.846 49.8959 172.086 54.5155 185.118 63.1378C199.152 72.4233 209.915 85.8822 215.888 101.614C221.861 117.346 222.742 134.557 218.407 150.817C214.072 167.077 204.74 181.565 191.727 192.235C178.715 202.906 162.68 209.22 145.886 210.286C129.092 211.352 112.387 207.117 98.1296 198.179C83.872 189.24 72.7821 176.049 66.4251 160.468C60.5223 146 58.9772 130.15 61.9373 114.86C62.3152 112.908 64.2676 111.718 66.2007 112.183C68.1338 112.648 69.3146 114.591 68.9454 116.545C66.3329 130.366 67.7586 144.677 73.0915 157.748C78.8787 171.932 88.9746 183.941 101.954 192.078C114.934 200.216 130.141 204.071 145.43 203.101C160.718 202.13 175.316 196.382 187.162 186.668C199.008 176.954 207.504 163.765 211.45 148.962C215.397 134.16 214.595 118.492 209.157 104.17C203.719 89.848 193.921 77.5956 181.145 69.1423C169.371 61.3525 155.617 57.1515 141.552 57.0063C139.564 56.9858 137.89 55.4472 137.812 53.4605Z" fill="#0088F0"/>
<path d="M132.927 128.966L132.405 128.832L132.662 126.276H135.296V126.879H133.216L133.061 128.275C133.155 128.221 133.274 128.17 133.417 128.123C133.563 128.076 133.73 128.053 133.918 128.053C134.155 128.053 134.368 128.094 134.556 128.176C134.744 128.256 134.903 128.371 135.035 128.522C135.169 128.672 135.271 128.853 135.342 129.065C135.412 129.276 135.448 129.512 135.448 129.773C135.448 130.02 135.413 130.247 135.345 130.454C135.279 130.661 135.18 130.842 135.046 130.997C134.912 131.149 134.742 131.268 134.538 131.353C134.336 131.437 134.097 131.48 133.822 131.48C133.616 131.48 133.419 131.451 133.234 131.395C133.05 131.336 132.886 131.248 132.74 131.131C132.597 131.011 132.479 130.863 132.388 130.686C132.298 130.508 132.242 130.299 132.218 130.059H132.839C132.867 130.252 132.923 130.414 133.008 130.545C133.093 130.677 133.203 130.777 133.339 130.845C133.478 130.911 133.639 130.944 133.822 130.944C133.977 130.944 134.115 130.917 134.235 130.863C134.355 130.809 134.456 130.731 134.538 130.63C134.62 130.529 134.683 130.407 134.725 130.263C134.769 130.12 134.792 129.959 134.792 129.78C134.792 129.618 134.769 129.468 134.725 129.329C134.68 129.19 134.613 129.069 134.524 128.966C134.437 128.863 134.33 128.783 134.203 128.726C134.076 128.668 133.93 128.638 133.766 128.638C133.547 128.638 133.382 128.668 133.269 128.726C133.158 128.785 133.044 128.865 132.927 128.966ZM136.988 128.966L136.466 128.832L136.724 126.276H139.357V126.879H137.277L137.122 128.275C137.216 128.221 137.335 128.17 137.478 128.123C137.624 128.076 137.791 128.053 137.979 128.053C138.216 128.053 138.429 128.094 138.617 128.176C138.805 128.256 138.965 128.371 139.096 128.522C139.23 128.672 139.333 128.853 139.403 129.065C139.474 129.276 139.509 129.512 139.509 129.773C139.509 130.02 139.475 130.247 139.407 130.454C139.341 130.661 139.241 130.842 139.107 130.997C138.973 131.149 138.804 131.268 138.599 131.353C138.397 131.437 138.159 131.48 137.884 131.48C137.677 131.48 137.481 131.451 137.295 131.395C137.112 131.336 136.947 131.248 136.801 131.131C136.658 131.011 136.54 130.863 136.449 130.686C136.359 130.508 136.303 130.299 136.28 130.059H136.9C136.928 130.252 136.985 130.414 137.069 130.545C137.154 130.677 137.264 130.777 137.401 130.845C137.539 130.911 137.7 130.944 137.884 130.944C138.039 130.944 138.176 130.917 138.296 130.863C138.416 130.809 138.517 130.731 138.599 130.63C138.682 130.529 138.744 130.407 138.786 130.263C138.831 130.12 138.853 129.959 138.853 129.78C138.853 129.618 138.831 129.468 138.786 129.329C138.741 129.19 138.674 129.069 138.585 128.966C138.498 128.863 138.391 128.783 138.264 128.726C138.137 128.668 137.992 128.638 137.827 128.638C137.609 128.638 137.443 128.668 137.33 128.726C137.22 128.785 137.106 128.865 136.988 128.966ZM141.652 128.959V129.495H139.932V128.959H141.652ZM144.723 126.269H144.779V126.823H144.723C144.377 126.823 144.088 126.879 143.856 126.992C143.623 127.102 143.438 127.252 143.302 127.44C143.166 127.625 143.067 127.834 143.006 128.067C142.947 128.3 142.918 128.536 142.918 128.776V129.53C142.918 129.758 142.945 129.96 142.999 130.136C143.053 130.31 143.127 130.457 143.221 130.577C143.315 130.697 143.421 130.787 143.538 130.849C143.658 130.91 143.783 130.94 143.912 130.94C144.062 130.94 144.196 130.912 144.314 130.856C144.431 130.797 144.53 130.716 144.61 130.612C144.692 130.507 144.755 130.382 144.797 130.239C144.839 130.095 144.86 129.938 144.86 129.766C144.86 129.614 144.842 129.467 144.804 129.326C144.766 129.182 144.709 129.055 144.631 128.945C144.554 128.832 144.456 128.744 144.339 128.68C144.223 128.615 144.086 128.582 143.926 128.582C143.745 128.582 143.576 128.626 143.418 128.716C143.263 128.803 143.135 128.918 143.034 129.061C142.935 129.202 142.879 129.356 142.865 129.523L142.519 129.52C142.552 129.256 142.613 129.032 142.703 128.846C142.794 128.658 142.907 128.505 143.041 128.388C143.178 128.268 143.329 128.181 143.496 128.127C143.665 128.071 143.844 128.042 144.032 128.042C144.288 128.042 144.509 128.091 144.695 128.187C144.88 128.283 145.033 128.413 145.153 128.575C145.273 128.735 145.361 128.915 145.417 129.118C145.476 129.317 145.505 129.523 145.505 129.735C145.505 129.977 145.471 130.203 145.403 130.415C145.335 130.626 145.233 130.812 145.097 130.972C144.963 131.132 144.797 131.256 144.599 131.346C144.402 131.435 144.173 131.48 143.912 131.48C143.635 131.48 143.393 131.423 143.186 131.31C142.979 131.195 142.807 131.042 142.671 130.852C142.535 130.662 142.433 130.45 142.364 130.218C142.296 129.985 142.262 129.749 142.262 129.509V129.202C142.262 128.84 142.299 128.485 142.371 128.138C142.444 127.79 142.57 127.475 142.749 127.193C142.93 126.911 143.18 126.686 143.5 126.519C143.819 126.353 144.227 126.269 144.723 126.269ZM149.75 129.682V130.218H146.041V129.833L148.34 126.276H148.872L148.301 127.306L146.782 129.682H149.75ZM149.034 126.276V131.409H148.382V126.276H149.034Z" fill="#8794BA"/>
<path d="M37.5771 30.0998L35.3114 36.3374H34.3854L36.9942 29.4934H37.5912L37.5771 30.0998ZM39.4761 36.3374L37.2058 30.0998L37.1917 29.4934H37.7886L40.4068 36.3374H39.4761ZM39.3586 33.8038V34.5465H35.5136V33.8038H39.3586ZM44.4869 31.2514H45.2765V36.2293C45.2765 36.6774 45.1857 37.0597 45.0039 37.3762C44.8222 37.6927 44.5683 37.9324 44.2424 38.0954C43.9197 38.2615 43.5468 38.3445 43.1237 38.3445C42.9482 38.3445 42.7414 38.3163 42.5032 38.2599C42.2682 38.2066 42.0363 38.1142 41.8076 37.9826C41.5819 37.8541 41.3924 37.6802 41.2388 37.4608L41.6948 36.9438C41.9078 37.2007 42.1303 37.3794 42.3622 37.4796C42.5973 37.5799 42.8291 37.63 43.0579 37.63C43.3337 37.63 43.5718 37.5783 43.7724 37.4749C43.9729 37.3715 44.1281 37.218 44.2377 37.0143C44.3505 36.8137 44.407 36.5662 44.407 36.2716V32.3702L44.4869 31.2514ZM40.985 33.8508V33.7521C40.985 33.3635 41.0304 33.011 41.1213 32.6945C41.2153 32.3749 41.3485 32.1007 41.5208 31.8719C41.6963 31.6431 41.9078 31.4677 42.1554 31.3454C42.403 31.2201 42.6819 31.1574 42.9921 31.1574C43.3117 31.1574 43.5906 31.2138 43.8288 31.3266C44.0701 31.4363 44.2738 31.5977 44.4399 31.8108C44.6091 32.0208 44.7423 32.2746 44.8394 32.5723C44.9365 32.87 45.0039 33.2069 45.0415 33.5829V34.0153C45.0071 34.3883 44.9397 34.7236 44.8394 35.0213C44.7423 35.319 44.6091 35.5728 44.4399 35.7827C44.2738 35.9927 44.0701 36.1541 43.8288 36.2669C43.5875 36.3766 43.3055 36.4314 42.9827 36.4314C42.6787 36.4314 42.403 36.3672 42.1554 36.2387C41.911 36.1102 41.701 35.93 41.5255 35.6981C41.35 35.4662 41.2153 35.1936 41.1213 34.8802C41.0304 34.5637 40.985 34.2206 40.985 33.8508ZM41.8546 33.7521V33.8508C41.8546 34.1047 41.8796 34.3428 41.9298 34.5653C41.9831 34.7878 42.063 34.9837 42.1695 35.1529C42.2792 35.3221 42.4186 35.4553 42.5879 35.5524C42.7571 35.6464 42.9592 35.6934 43.1942 35.6934C43.4825 35.6934 43.7207 35.6323 43.9087 35.5101C44.0967 35.3879 44.2456 35.2265 44.3552 35.026C44.4681 34.8254 44.5558 34.6076 44.6185 34.3726V33.2398C44.584 33.0674 44.5307 32.9013 44.4587 32.7415C44.3897 32.5786 44.2988 32.4344 44.186 32.3091C44.0763 32.1806 43.94 32.0787 43.7771 32.0035C43.6141 31.9283 43.423 31.8907 43.2036 31.8907C42.9655 31.8907 42.7602 31.9408 42.5879 32.0411C42.4186 32.1383 42.2792 32.273 42.1695 32.4454C42.063 32.6146 41.9831 32.812 41.9298 33.0376C41.8796 33.2601 41.8546 33.4983 41.8546 33.7521ZM48.7079 36.4314C48.3538 36.4314 48.0326 36.3719 47.7443 36.2528C47.4592 36.1306 47.2132 35.9598 47.0063 35.7404C46.8027 35.5211 46.646 35.261 46.5363 34.9601C46.4266 34.6593 46.3718 34.3303 46.3718 33.973V33.7756C46.3718 33.362 46.4329 32.9938 46.5551 32.671C46.6773 32.3451 46.8434 32.0693 47.0533 31.8437C47.2633 31.6181 47.5015 31.4473 47.7678 31.3313C48.0342 31.2154 48.31 31.1574 48.5951 31.1574C48.9586 31.1574 49.272 31.2201 49.5352 31.3454C49.8016 31.4708 50.0194 31.6463 50.1886 31.8719C50.3578 32.0944 50.4832 32.3576 50.5646 32.6616C50.6461 32.9624 50.6868 33.2915 50.6868 33.6487V34.0388H46.8888V33.3291H49.8173V33.2633C49.8047 33.0376 49.7577 32.8183 49.6762 32.6052C49.5979 32.3921 49.4725 32.2166 49.3002 32.0787C49.1278 31.9408 48.8928 31.8719 48.5951 31.8719C48.3977 31.8719 48.2159 31.9142 48.0499 31.9988C47.8838 32.0803 47.7412 32.2025 47.6221 32.3655C47.503 32.5284 47.4106 32.7274 47.3448 32.9624C47.279 33.1975 47.2461 33.4685 47.2461 33.7756V33.973C47.2461 34.2143 47.279 34.4415 47.3448 34.6546C47.4137 34.8646 47.5124 35.0495 47.6409 35.2093C47.7725 35.3691 47.9308 35.4944 48.1157 35.5853C48.3037 35.6762 48.5168 35.7216 48.7549 35.7216C49.062 35.7216 49.3221 35.659 49.5352 35.5336C49.7483 35.4083 49.9348 35.2406 50.0946 35.0307L50.621 35.449C50.5114 35.6151 50.3719 35.7733 50.2027 35.9238C50.0335 36.0742 49.8251 36.1964 49.5775 36.2904C49.3331 36.3844 49.0432 36.4314 48.7079 36.4314ZM54.6635 34.9884C54.6635 34.863 54.6353 34.7471 54.5789 34.6405C54.5256 34.5308 54.4144 34.4321 54.2451 34.3444C54.0791 34.2535 53.8284 34.1752 53.4931 34.1094C53.211 34.0498 52.9556 33.9793 52.7269 33.8978C52.5012 33.8164 52.3085 33.7176 52.1487 33.6017C51.992 33.4858 51.8714 33.3494 51.7868 33.1928C51.7022 33.0361 51.6599 32.8527 51.6599 32.6428C51.6599 32.4422 51.7037 32.2526 51.7915 32.074C51.8823 31.8954 52.0093 31.7372 52.1722 31.5993C52.3383 31.4614 52.5373 31.3533 52.7692 31.2749C53.0011 31.1966 53.2596 31.1574 53.5448 31.1574C53.9521 31.1574 54.3 31.2295 54.5883 31.3737C54.8766 31.5178 55.0975 31.7105 55.2511 31.9518C55.4046 32.19 55.4814 32.4548 55.4814 32.7462H54.6118C54.6118 32.6052 54.5695 32.4689 54.4849 32.3373C54.4034 32.2025 54.2827 32.0913 54.1229 32.0035C53.9662 31.9158 53.7735 31.8719 53.5448 31.8719C53.3035 31.8719 53.1076 31.9095 52.9572 31.9847C52.8099 32.0568 52.7018 32.1492 52.6329 32.2621C52.5671 32.3749 52.5342 32.4939 52.5342 32.6193C52.5342 32.7133 52.5498 32.7979 52.5812 32.8731C52.6156 32.9452 52.6752 33.0126 52.7598 33.0752C52.8444 33.1348 52.9635 33.1912 53.117 33.2445C53.2706 33.2977 53.4664 33.351 53.7046 33.4043C54.1214 33.4983 54.4645 33.6111 54.734 33.7427C55.0035 33.8743 55.204 34.0357 55.3357 34.2269C55.4673 34.418 55.5331 34.6499 55.5331 34.9225C55.5331 35.145 55.4861 35.3487 55.3921 35.5336C55.3012 35.7185 55.168 35.8783 54.9925 36.0131C54.8202 36.1447 54.6133 36.2481 54.3721 36.3233C54.1339 36.3954 53.866 36.4314 53.5683 36.4314C53.1202 36.4314 52.741 36.3515 52.4307 36.1917C52.1205 36.0319 51.8855 35.825 51.7257 35.5712C51.5658 35.3174 51.4859 35.0495 51.4859 34.7674H52.3602C52.3728 35.0056 52.4417 35.1952 52.5671 35.3362C52.6924 35.4741 52.846 35.5728 53.0277 35.6323C53.2095 35.6887 53.3896 35.7169 53.5683 35.7169C53.8064 35.7169 54.0054 35.6856 54.1652 35.6229C54.3282 35.5602 54.452 35.4741 54.5366 35.3644C54.6212 35.2547 54.6635 35.1294 54.6635 34.9884Z" fill="#8794BA"/>
</g>
<defs>
<filter id="filter0_d_747_3290" x="-35" y="-16.6626" width="431" height="316.683" filterUnits="userSpaceOnUse" color-interpolation-filters="sRGB">
<feFlood flood-opacity="0" result="BackgroundImageFix"/>
<feColorMatrix in="SourceAlpha" type="matrix" values="0 0 0 0 0 0 0 0 0 0 0 0 0 0 0 0 0 0 127 0" result="hardAlpha"/>
<feMorphology radius="15" operator="erode" in="SourceAlpha" result="effect1_dropShadow_747_3290"/>
<feOffset dy="18"/>
<feGaussianBlur stdDeviation="25"/>
<feColorMatrix type="matrix" values="0 0 0 0 0.0996452 0 0 0 0 0.164326 0 0 0 0 0.350284 0 0 0 0.2 0"/>
<feBlend mode="normal" in2="BackgroundImageFix" result="effect1_dropShadow_747_3290"/>
<feBlend mode="normal" in="SourceGraphic" in2="effect1_dropShadow_747_3290" result="shape"/>
</filter>
</defs>
</svg>
